<svg width="111" height="128" viewBox="0 0 111 128" fill="none" xmlns="http://www.w3.org/2000/svg">
<mask id="mask0_20_101" style="mask-type:alpha" maskUnits="userSpaceOnUse" x="7" y="10" width="94" height="113">
<path d="M7.79401 97.4997L59.0676 10.3129L69.9255 15.4998L40.6528 64.6073L61.8517 77.0558L90.5846 26.2756L100.926 32.4999L49.5529 122.724L39.212 116.5L55.6471 87.9483L34.4482 75.4998L18.1349 103.724L7.79401 97.4997Z" fill="#C4C4C4"/>
</mask>
<g mask="url(#mask0_20_101)">
<path d="M42.6256 7.39008C47.2887 4.69785 49.6203 3.35173 52.099 2.82485C54.2923 2.35866 56.559 2.35866 58.7522 2.82485C61.231 3.35173 63.5625 4.69785 68.2256 7.39008L98.0513 24.6099C102.714 27.3022 105.046 28.6483 106.742 30.5315C108.242 32.1978 109.375 34.1609 110.068 36.2933C110.851 38.7035 110.851 41.3957 110.851 46.7802L110.851 81.2198C110.851 86.6043 110.851 89.2965 110.068 91.7067C109.375 93.8391 108.242 95.8022 106.742 97.4685C105.046 99.3517 102.714 100.698 98.0513 103.39L68.2256 120.61C63.5625 123.302 61.231 124.648 58.7522 125.175C56.559 125.641 54.2923 125.641 52.099 125.175C49.6203 124.648 47.2887 123.302 42.6256 120.61L12.8 103.39C8.13691 100.698 5.80536 99.3517 4.10968 97.4685C2.60934 95.8022 1.47598 93.8391 0.783095 91.7067C-6.07096e-07 89.2965 -5.88792e-07 86.6043 -5.52185e-07 81.2198L-3.18042e-07 46.7802C-2.81435e-07 41.3957 -2.63131e-07 38.7035 0.783096 36.2933C1.47598 34.1609 2.60934 32.1978 4.10968 30.5315C5.80536 28.6483 8.13691 27.3022 12.8 24.6099L42.6256 7.39008Z" fill="url(#paint0_angular_20_101)"/>
</g>
<path d="M66.2256 10.8542L96.0513 28.074C100.948 30.9012 102.598 31.9074 103.769 33.208C104.894 34.4578 105.744 35.93 106.264 37.5294C106.805 39.194 106.851 41.1259 106.851 46.7802L106.851 81.2198C106.851 86.8741 106.805 88.8061 106.264 90.4706C105.744 92.07 104.894 93.5422 103.769 94.792C102.598 96.0926 100.948 97.0988 96.0513 99.926L66.2256 117.146C61.3289 119.973 59.6325 120.899 57.9206 121.263C56.2756 121.612 54.5756 121.612 52.9307 121.263C51.2187 120.899 49.5224 119.973 44.6256 117.146L14.8 99.926C9.90323 97.0988 8.25338 96.0926 7.08226 94.792C5.95701 93.5422 5.10698 92.07 4.58732 90.4706C4.04648 88.8061 4 86.8741 4 81.2198L4 46.7802C4 41.1259 4.04648 39.1939 4.58732 37.5294C5.10699 35.93 5.95701 34.4578 7.08226 33.208C8.25338 31.9074 9.90323 30.9012 14.8 28.074L44.6256 10.8542C49.5224 8.02704 51.2187 7.10133 52.9307 6.73744C54.5756 6.3878 56.2756 6.3878 57.9206 6.73744C59.6325 7.10133 61.3289 8.02704 66.2256 10.8542Z" stroke="url(#paint1_angular_20_101)" stroke-width="8"/>
<defs>
<radialGradient id="paint0_angular_20_101" cx="0" cy="0" r="1" gradientUnits="userSpaceOnUse" gradientTransform="translate(55.4256 64) rotate(90) scale(64 55.4256)">
<stop stop-color="#9E00FF"/>
<stop offset="0.5" stop-color="#18E6F3"/>
<stop offset="0.9999" stop-color="#9E00FF"/>
<stop offset="1" stop-color="#9E00FF"/>
</radialGradient>
<radialGradient id="paint1_angular_20_101" cx="0" cy="0" r="1" gradientUnits="userSpaceOnUse" gradientTransform="translate(55.4256 64) rotate(90) scale(64)">
<stop stop-color="#9E00FF"/>
<stop offset="0.5" stop-color="#18E6F3"/>
<stop offset="0.9999" stop-color="#9E00FF"/>
<stop offset="1" stop-color="#9E00FF"/>
</radialGradient>
</defs>
</svg>