<svg width="1544" height="253" viewBox="0 0 1544 253" fill="none" xmlns="http://www.w3.org/2000/svg">
<path fill-rule="evenodd" clip-rule="evenodd" d="M1543.93 66.8567L1479.59 73.072C1415.24 79.2872 1286.56 91.7177 1157.86 98.1482C1029.15 104.579 900.429 105.009 771.685 99.4399C642.941 93.8705 514.177 82.3011 385.533 106.731C256.889 131.162 128.366 191.592 64.1045 221.807L-0.157117 252.022L-0.999995 0.023755L63.3619 -0.191521C127.724 -0.406797 256.448 -0.83735 385.172 -1.2679C513.896 -1.69845 642.62 -2.12901 771.343 -2.55956C900.067 -2.99011 1028.79 -3.42066 1157.52 -3.85122C1286.24 -4.28177 1414.96 -4.71232 1479.32 -4.9276L1543.69 -5.14288L1543.93 66.8567Z" fill="#4DB8FF"/>
</svg>
